<svg width="49" height="48" viewBox="0 0 49 48" fill="none" xmlns="http://www.w3.org/2000/svg">
<path d="M34.6178 16.8401C34.8466 16.5393 35.1807 16.3359 35.553 16.2708C35.9253 16.2056 36.3085 16.2834 36.626 16.4886C36.9434 16.6938 37.1717 17.0113 37.2651 17.3776C37.3585 17.7439 37.3102 18.1319 37.1298 18.4641L37.0098 18.6501L28.9858 29.2581C28.7582 29.5624 28.4235 29.7689 28.0495 29.836C27.6755 29.9031 27.2899 29.8258 26.9708 29.6196C26.6516 29.4134 26.4225 29.0937 26.3299 28.7252C26.2373 28.3567 26.288 27.9667 26.4718 27.6341L26.5918 27.4481L34.6178 16.8401Z" fill="#313235"/>
<path d="M24.3299 8.50391C37.3039 8.50391 47.8219 19.0219 47.8219 31.9959C47.8219 32.3937 47.6639 32.7753 47.3826 33.0566C47.1012 33.3379 46.7197 33.4959 46.3219 33.4959C45.9241 33.4959 45.5425 33.3379 45.2612 33.0566C44.9799 32.7753 44.8219 32.3937 44.8219 31.9959C44.8219 20.6779 35.6479 11.5039 24.3299 11.5039C13.0119 11.5039 3.83789 20.6779 3.83789 31.9959C3.83789 32.3937 3.67986 32.7753 3.39855 33.0566C3.11725 33.3379 2.73572 33.4959 2.33789 33.4959C1.94007 33.4959 1.55853 33.3379 1.27723 33.0566C0.995926 32.7753 0.837891 32.3937 0.837891 31.9959C0.837891 19.0219 11.3559 8.50391 24.3299 8.50391Z" fill="#313235"/>
<path d="M24.3298 25.9961C25.1178 25.9961 25.898 26.1513 26.6259 26.4528C27.3539 26.7543 28.0153 27.1963 28.5725 27.7535C29.1296 28.3106 29.5716 28.972 29.8731 29.7C30.1746 30.4279 30.3298 31.2082 30.3298 31.9961C30.3298 32.784 30.1746 33.5642 29.8731 34.2922C29.5716 35.0201 29.1296 35.6816 28.5725 36.2387C28.0153 36.7959 27.3539 37.2378 26.6259 37.5394C25.898 37.8409 25.1178 37.9961 24.3298 37.9961C22.7385 37.9961 21.2124 37.364 20.0872 36.2387C18.962 35.1135 18.3298 33.5874 18.3298 31.9961C18.3298 30.4048 18.962 28.8787 20.0872 27.7535C21.2124 26.6282 22.7385 25.9961 24.3298 25.9961ZM24.3298 28.9961C23.9359 28.9961 23.5458 29.0737 23.1818 29.2245C22.8178 29.3752 22.4871 29.5962 22.2085 29.8748C21.9299 30.1533 21.709 30.4841 21.5582 30.848C21.4074 31.212 21.3298 31.6021 21.3298 31.9961C21.3298 32.3901 21.4074 32.7802 21.5582 33.1441C21.709 33.5081 21.9299 33.8388 22.2085 34.1174C22.4871 34.396 22.8178 34.617 23.1818 34.7677C23.5458 34.9185 23.9359 34.9961 24.3298 34.9961C25.1255 34.9961 25.8885 34.68 26.4512 34.1174C27.0138 33.5548 27.3298 32.7917 27.3298 31.9961C27.3298 31.2004 27.0138 30.4374 26.4512 29.8748C25.8885 29.3122 25.1255 28.9961 24.3298 28.9961Z" fill="#313235"/>
</svg>
