<svg width="49" height="48" viewBox="0 0 49 48" fill="none" xmlns="http://www.w3.org/2000/svg">
<path fill-rule="evenodd" clip-rule="evenodd" d="M8.09189 1.14005C10.4397 0.0712454 13.0578 -0.25555 15.5963 0.203333C18.1348 0.662217 20.4728 1.88492 22.2979 3.70805C23.9902 5.40075 25.1682 7.53841 25.6953 9.87324C26.2223 12.2081 26.0769 14.6445 25.2759 16.9L48.1679 37.84C48.3171 37.9768 48.4372 38.1423 48.5207 38.3267C48.6043 38.5111 48.6497 38.7104 48.6542 38.9128C48.6587 39.1152 48.6222 39.3164 48.5468 39.5042C48.4715 39.6921 48.3589 39.8628 48.2159 40.0061L40.6699 47.558C40.5266 47.7014 40.3558 47.8143 40.1677 47.8898C39.9797 47.9653 39.7782 48.0019 39.5756 47.9974C39.373 47.9929 39.1734 47.9474 38.9889 47.8637C38.8043 47.7799 38.6387 47.6596 38.5019 47.51L17.5599 24.614C15.2165 25.4476 12.6796 25.5724 10.2658 24.9729C7.85191 24.3734 5.66813 23.0762 3.98703 21.2432C2.30592 19.4102 1.20198 17.1226 0.813011 14.666C0.424043 12.2095 0.767285 9.69273 1.79989 7.43005C1.90019 7.20944 2.05245 7.01641 2.24363 6.86749C2.43482 6.71857 2.65925 6.61819 2.8977 6.57495C3.13615 6.5317 3.38153 6.54687 3.61284 6.61916C3.84415 6.69145 4.0545 6.81871 4.22589 6.99005L10.7119 13.476L14.1339 10.052L7.64789 3.56605C7.47612 3.39468 7.34849 3.1842 7.27594 2.95266C7.2034 2.72112 7.1881 2.47545 7.23137 2.2367C7.27463 1.99795 7.37517 1.77327 7.52435 1.58191C7.67353 1.39056 7.86691 1.23825 8.08789 1.13805L8.09189 1.14005ZM11.5059 3.18005L17.3199 8.99005C17.6008 9.2713 17.7586 9.65255 17.7586 10.05C17.7586 10.4475 17.6008 10.8288 17.3199 11.11L11.7739 16.66C11.4926 16.941 11.1114 17.0987 10.7139 17.0987C10.3164 17.0987 9.93514 16.941 9.65389 16.66L3.83989 10.846C3.53749 12.3977 3.62101 13.9999 4.0831 15.5117C4.54519 17.0235 5.37168 18.3986 6.48989 19.5161C7.88453 20.9088 9.67148 21.8421 11.6113 22.191C13.5512 22.5399 15.5514 22.2876 17.3439 21.4681C17.6326 21.3365 17.9556 21.2999 18.2665 21.3635C18.5774 21.4271 18.86 21.5877 19.0739 21.8221L39.6559 44.328L44.9859 38.994L22.4839 18.414C22.2495 18.2002 22.0889 17.9175 22.0253 17.6067C21.9617 17.2958 21.9983 16.9728 22.1299 16.684C22.9489 14.8913 23.2007 12.8911 22.8515 10.9513C22.5022 9.01145 21.5687 7.22462 20.1759 5.83005C19.0586 4.71149 17.6836 3.88462 16.1718 3.42218C14.66 2.95975 13.0577 2.87591 11.5059 3.17805V3.18005Z" fill="#313235"/>
</svg>
