<svg width="49" height="48" viewBox="0 0 49 48" fill="none" xmlns="http://www.w3.org/2000/svg">
<path fill-rule="evenodd" clip-rule="evenodd" d="M26.1119 1.01601C25.9711 0.85372 25.7971 0.723572 25.6016 0.634378C25.4062 0.545183 25.1938 0.499023 24.9789 0.499023C24.7641 0.499023 24.5517 0.545183 24.3563 0.634378C24.1608 0.723572 23.9867 0.85372 23.8459 1.01601L23.8339 1.03201L23.7799 1.09201C23.4154 1.48833 23.0385 1.87318 22.6499 2.24601C21.8619 3.00601 20.7179 4.01801 19.3139 5.03001C16.4739 7.07601 12.7299 8.99201 8.76194 8.99201C8.42986 8.99192 8.10713 9.10203 7.84436 9.30509C7.58159 9.50814 7.39363 9.79265 7.30994 10.114V10.118L7.30794 10.124L7.30194 10.144L7.28794 10.206C7.20565 10.5555 7.13163 10.907 7.06594 11.26C6.93194 11.97 6.77194 12.986 6.65194 14.24C6.33739 17.5189 6.45169 20.8247 6.99194 24.074C8.30794 31.84 12.5879 41.168 24.2799 47.328C24.4957 47.4419 24.736 47.5014 24.9799 47.5014C25.2239 47.5014 25.4642 47.4419 25.6799 47.328C37.3719 41.168 41.6519 31.84 42.9679 24.074C43.6219 20.212 43.5459 16.742 43.3079 14.24C43.1879 12.986 43.0279 11.97 42.8939 11.26C42.8289 10.907 42.7555 10.5556 42.6739 10.206L42.6559 10.142L42.6519 10.124V10.12L42.6499 10.118C42.5663 9.79644 42.3784 9.51168 42.1157 9.30829C41.853 9.10491 41.5302 8.99438 41.1979 8.99401C37.2299 8.99401 33.4859 7.07801 30.6439 5.03201C29.1223 3.93084 27.7032 2.69448 26.4039 1.33801C26.3284 1.25616 26.2537 1.17348 26.1799 1.09001L26.1259 1.03001L26.1139 1.01601H26.1119ZM39.9699 11.944C35.5819 11.6 31.6859 9.47801 28.8899 7.46401C27.5061 6.46388 26.1991 5.36146 24.9799 4.16601C23.7621 5.36362 22.4542 6.46618 21.0679 7.46401C18.2719 9.47801 14.3779 11.6 9.98794 11.944C9.83617 12.7988 9.72007 13.6596 9.63994 14.524C9.34992 17.5407 9.45413 20.5823 9.94994 23.572C11.1159 30.454 14.8039 38.66 24.9799 44.296C35.1559 38.662 38.8439 30.456 40.0099 23.572C40.6099 20.032 40.5419 16.836 40.3199 14.524C40.2392 13.6595 40.1224 12.7988 39.9699 11.944Z" fill="#313235"/>
<path fill-rule="evenodd" clip-rule="evenodd" d="M18.786 29.2641L24.684 24.2441C27.314 22.0241 28.272 20.7921 28.272 19.0641C28.272 17.1701 26.932 16.0741 25.178 16.0741C23.64 16.0741 22.572 16.7881 21.392 18.2141C21.2443 18.3806 21.0624 18.5133 20.8588 18.603C20.6551 18.6928 20.4345 18.7375 20.212 18.7341C20.0104 18.7346 19.8107 18.6953 19.6243 18.6184C19.4379 18.5415 19.2686 18.4285 19.1261 18.286C18.9835 18.1434 18.8706 17.9741 18.7937 17.7878C18.7167 17.6014 18.6774 17.4017 18.678 17.2001C18.678 16.8421 18.814 16.4581 19.062 16.1581C20.624 14.2101 22.406 13.0581 25.422 13.0581C29.18 13.0581 31.756 15.3621 31.756 18.7901V18.8441C31.756 21.8621 30.166 23.5041 26.766 26.2741L22.816 29.5641H30.604C31.428 29.5641 32.084 30.2221 32.084 31.0441C32.084 31.8661 31.426 32.5241 30.604 32.5241H19.72C18.68 32.5241 17.908 31.9221 17.908 30.9361C17.908 30.2761 18.21 29.7281 18.788 29.2641H18.786Z" fill="#313235"/>
</svg>
